P2
100 100
255
255 255 255 255 255 255 255 255 255 255 255 255 255 255 255 255 255 255 255 255 255 255 255 255 255 255 255 255 255 255 255 255 255 255 255 255 255 255 255 255 14 14 14 14 14 14 14 14 14 14 14 14 14 14 14 14 14 14 14 14 255 255 255 255 255 255 255 255 255 255 255 255 255 255 255 255 255 255 255 255 255 255 255 255 255 255 255 255 255 255 255 255 255 255 255 255 255 255 255 255 255 255 255 255 255 255 255 255 255 255 255 255 255 255 255 255 255 255 255 255 255 255 255 255 255 255 255 255 255 255 255 255 255 255 255 255 14 14 14 14 14 14 14 14 14 14 14 14 14 14 14 14 14 14 14 14 14 14 14 14 14 14 14 14 255 255 255 255 255 255 255 255 255 255 255 255 255 255 255 255 255 255 255 255 255 255 255 255 255 255 255 255 255 255 255 255 255 255 255 255 255 255 255 255 255 255 255 255 255 255 255 255 255 255 255 255 255 255 255 255 255 255 255 255 255 255 255 255 255 255 255 255 255 14 14 14 14 14 14 14 14 14 14 15 15 14 14 14 16 49 108 188 229 207 152 152 104 89 44 20 14 14 14 14 14 14 14 255 255 255 255 255 255 255 255 255 255 255 255 255 255 255 255 255 255 255 255 255 255 255 255 255 255 255 255 255 255 255 255 255 255 255 255 255 255 255 255 255 255 255 255 255 255 255 255 255 255 255 255 255 255 255 255 255 255 255 255 255 255 255 14 14 14 14 14 14 14 14 14 15 14 15 14 15 14 27 89 168 229 229 229 229 229 229 229 229 229 229 229 229 188 118 64 27 14 14 14 14 14 14 255 255 255 255 255 255 255 255 255 255 255 255 255 255 255 255 255 255 255 255 255 255 255 255 255 255 255 255 255 255 255 255 255 255 255 255 255 255 255 255 255 255 255 255 255 255 255 255 255 255 255 255 255 255 255 255 255 255 14 14 14 14 14 14 14 14 14 14 14 14 14 31 47 108 188 229 229 229 229 229 229 229 229 229 229 229 229 229 229 229 229 229 229 229 168 76 27 14 14 15 14 14 255 255 255 255 255 255 255 255 255 255 255 255 255 255 255 255 255 255 255 255 255 255 255 255 255 255 255 255 255 255 255 255 255 255 255 255 255 255 255 255 255 255 255 255 255 255 255 255 255 255 255 255 255 255 14 14 14 14 14 14 14 14 14 14 14 15 14 14 71 198 243 245 245 241 239 233 229 229 229 229 229 229 229 229 229 229 152 152 152 152 152 152 152 152 152 114 64 14 14 14 14 14 255 255 255 255 255 255 255 255 255 255 255 255 255 255 255 255 255 255 255 255 255 255 255 255 255 255 255 255 255 255 255 255 255 255 255 255 255 255 255 255 255 255 255 255 255 255 255 255 255 255 14 14 14 14 14 22 14 14 14 14 14 14 15 14 56 188 229 229 231 235 243 245 245 245 233 188 127 89 52 42 32 14 14 14 14 14 14 23 36 36 36 38 36 36 36 35 24 16 14 16 14 255 255 255 255 255 255 255 255 255 255 255 255 255 255 255 255 255 255 255 255 255 255 255 255 255 255 255 255 255 255 255 255 255 255 255 255 255 255 255 255 255 255 255 255 255 255 255 255 14 15 14 14 64 140 14 14 14 14 14 14 15 30 188 229 229 229 229 229 229 152 120 147 135 122 122 134 97 61 75 87 124 116 127 168 186 186 186 186 186 186 186 186 186 186 186 186 169 75 18 14 15 14 255 255 255 255 255 255 255 255 255 255 255 255 255 255 255 255 255 255 255 255 255 255 255 255 255 255 255 255 255 255 255 255 255 255 255 255 255 255 255 255 255 255 255 255 14 14 14 14 44 188 229 89 14 14 14 14 14 15 81 229 229 229 229 207 117 51 18 23 47 81 153 203 225 225 225 224 198 186 186 186 181 156 129 137 156 177 186 186 186 186 186 186 186 186 186 186 169 56 14 14 14 14 255 255 255 255 255 255 255 255 255 255 255 255 255 255 255 255 255 255 255 255 255 255 255 255 255 255 255 255 255 255 255 255 255 255 255 255 255 255 255 255 255 14 14 14 15 134 229 229 229 64 14 14 14 14 17 138 229 229 229 116 48 24 66 112 153 186 186 186 186 198 224 225 225 225 225 209 186 186 186 186 186 161 129 122 132 156 181 186 186 186 186 186 186 186 186 186 138 31 14 16 14 255 255 255 255 255 255 255 255 255 255 255 255 255 255 255 255 255 255 255 255 255 255 255 255 255 255 255 255 255 255 255 255 255 255 255 255 255 255 255 14 14 14 13 14 229 229 229 112 18 14 15 14 14 29 207 229 113 44 87 153 186 186 186 186 186 186 186 186 186 193 224 225 225 225 225 211 186 186 186 186 186 186 152 127 122 122 144 177 186 186 186 186 186 186 186 186 186 75 14 14 14 255 255 255 255 255 255 255 255 255 255 255 255 255 255 255 255 255 255 255 255 255 255 255 255 255 255 255 255 255 255 255 255 255 255 255 255 14 14 14 14 11 10 15 152 132 22 24 34 46 46 46 41 20 25 73 138 186 186 186 186 186 186 186 186 186 186 186 186 186 193 224 225 225 225 225 200 186 186 186 186 186 186 177 137 122 122 122 144 177 186 186 186 186 186 186 186 186 138 31 14 14 255 255 255 255 255 255 255 255 255 255 255 255 255 255 255 255 255 255 255 255 255 255 255 255 255 255 255 255 255 255 255 255 255 255 14 14 14 13 11 10 10 12 36 29 44 46 46 46 46 46 46 46 21 112 186 186 186 186 169 124 124 87 75 75 75 75 75 75 75 108 196 196 196 225 224 191 186 186 186 186 186 186 186 156 127 122 122 122 149 181 186 186 186 186 186 186 186 169 56 14 17 14 255 255 255 255 255 255 255 255 255 255 255 255 255 255 255 255 255 255 255 255 255 255 255 255 255 255 255 255 255 255 255 14 14 14 13 10 10 10 10 13 35 46 46 46 46 46 46 46 46 46 42 66 99 95 74 65 84 85 128 149 152 152 152 152 134 89 87 85 116 147 129 122 122 96 47 75 124 153 186 186 186 186 172 132 122 122 122 127 164 186 186 186 186 186 186 186 186 75 14 16 14 255 255 255 255 255 255 255 255 255 255 255 255 255 255 255 255 255 255 255 255 255 255 255 255 255 255 255 255 255 14 14 14 12 10 10 10 10 15 41 46 46 46 46 46 46 46 46 46 46 36 58 229 229 229 229 229 229 229 229 229 229 229 229 229 229 229 229 233 245 245 245 211 198 89 42 19 14 24 47 87 138 186 181 137 122 122 122 122 141 181 186 186 186 186 186 186 186 99 14 18 14 255 255 255 255 255 255 255 255 255 255 255 255 255 255 255 255 255 255 255 255 255 255 255 255 255 255 255 14 14 14 12 10 10 10 10 14 41 46 46 46 46 46 46 46 46 46 46 46 34 85 229 229 229 229 229 229 229 229 229 229 229 229 229 229 229 229 229 243 245 245 245 245 233 229 229 188 118 74 26 14 25 56 112 144 122 122 122 122 129 172 186 186 186 186 186 186 186 124 19 18 14 255 255 255 255 255 255 255 255 255 255 255 255 255 255 255 255 255 255 255 255 255 255 255 255 255 14 14 14 14 14 14 14 18 19 41 46 46 46 46 46 46 46 46 46 46 46 46 27 168 229 229 229 229 229 229 229 229 229 229 229 229 229 229 229 229 229 241 245 245 245 245 235 229 229 229 229 229 229 188 118 52 14 14 37 74 122 122 122 122 161 186 186 186 186 186 186 186 138 19 17 255 255 255 255 255 255 255 255 255 255 255 255 255 255 255 255 255 255 255 255 255 255 255 255 14 16 14 43 152 152 168 229 81 34 46 46 46 46 46 46 46 46 46 46 46 46 46 23 100 100 100 112 152 207 229 229 229 229 229 229 229 229 229 229 229 229 239 245 245 245 245 237 229 229 229 229 229 229 229 229 229 207 118 52 11 13 44 102 122 122 149 186 186 186 186 186 186 186 124 14 18 255 255 255 255 255 255 255 255 255 255 255 255 255 255 255 255 255 255 255 255 255 255 255 14 14 53 229 229 229 229 188 22 46 46 46 46 46 46 46 46 46 46 46 46 46 31 11 10 10 11 11 11 12 16 18 23 50 99 168 229 229 229 229 229 229 237 245 245 245 245 237 229 229 229 229 229 229 229 229 229 229 229 229 207 79 18 10 32 83 122 144 186 186 186 186 186 186 186 99 14 14 255 255 255 255 255 255 255 255 255 255 255 255 255 255 255 255 255 255 255 255 255 14 14 35 207 229 229 229 229 33 36 46 46 46 46 46 46 46 46 46 46 46 46 46 15 10 10 10 10 10 10 10 10 10 10 11 11 15 17 33 99 188 229 229 241 245 245 245 245 233 229 229 229 229 229 229 229 229 229 229 229 229 229 224 163 100 36 10 27 83 144 186 186 186 186 186 186 186 87 17 14 255 255 255 255 255 255 255 255 255 255 255 255 255 255 255 255 255 255 255 14 14 20 188 229 229 229 229 168 18 46 46 46 46 46 46 46 46 46 46 46 46 46 22 11 10 10 10 10 10 10 10 10 10 10 10 10 10 10 11 12 15 23 87 220 245 245 245 245 231 229 229 229 229 229 229 229 229 229 229 229 229 229 229 220 155 152 124 43 10 27 97 186 186 186 186 186 186 186 56 20 14 255 255 255 255 255 255 255 255 255 255 255 255 255 255 255 255 255 14 15 14 152 229 229 229 117 48 31 31 46 46 46 46 46 46 46 46 46 46 46 46 29 13 10 10 10 10 10 10 10 10 10 10 10 10 10 10 10 10 10 10 11 16 124 135 188 235 241 229 229 229 229 229 229 229 229 229 229 229 229 229 229 229 229 203 152 152 152 124 43 10 40 153 186 186 186 186 186 169 31 22 255 255 255 255 255 255 255 255 255 255 255 255 255 255 255 255 255 14 14 76 229 207 89 19 37 124 38 30 46 46 46 46 46 46 46 46 46 46 46 31 14 10 10 10 10 10 10 10 10 10 10 10 10 10 10 10 10 10 10 10 10 36 117 120 124 125 89 168 229 229 229 229 229 229 229 229 229 229 229 229 229 229 229 229 179 152 152 152 152 112 29 16 87 186 186 186 186 186 138 18 14 255 255 255 255 255 255 255 255 255 255 255 255 255 255 255 14 14 35 229 118 19 25 112 186 186 18 36 46 46 46 46 46 46 46 46 46 46 32 15 10 10 10 10 10 10 10 10 10 10 10 10 10 10 10 10 10 10 10 10 10 71 117 117 117 109 16 14 34 152 229 229 229 229 229 229 229 229 229 229 229 229 229 229 224 155 152 152 152 152 152 91 18 38 153 186 186 186 186 87 22 255 255 255 255 255 255 255 255 255 255 255 255 255 255 255 16 14 153 42 14 75 169 186 186 186 27 28 46 46 46 46 46 46 46 46 44 24 25 17 10 10 10 10 10 10 10 10 10 10 10 10 10 10 10 10 10 10 10 10 17 117 117 117 117 42 10 10 12 14 34 152 229 229 229 229 229 229 229 229 229 229 229 229 229 198 152 152 152 152 152 152 144 51 19 99 186 186 186 186 37 20 255 255 255 255 255 255 255 255 255 255 255 255 255 14 14 61 19 31 138 186 186 186 186 85 40 17 46 46 46 46 46 46 46 32 17 37 207 48 10 10 10 10 10 10 10 10 10 10 10 10 10 10 10 10 10 10 10 10 49 117 117 117 89 10 10 10 10 10 12 14 34 168 229 229 229 229 229 229 229 229 229 229 229 229 169 152 152 152 152 152 152 182 134 19 66 186 186 186 138 17 14 255 255 255 255 255 255 255 255 255 255 255 14 16 18 18 66 186 186 186 186 169 45 168 168 14 20 39 46 46 39 30 17 18 97 229 229 140 11 10 10 10 10 10 10 10 10 10 10 10 10 10 10 10 10 10 10 13 108 117 117 108 21 10 10 10 10 10 10 10 13 14 55 207 229 229 229 229 229 229 229 229 229 229 207 152 152 152 152 152 152 152 207 188 32 47 169 186 186 75 33 255 255 255 255 255 255 255 255 255 255 255 14 14 17 124 186 186 186 186 169 38 168 229 207 18 14 14 14 14 14 22 84 207 229 229 229 229 18 10 10 10 10 10 10 10 10 10 10 10 10 10 10 10 10 10 10 49 117 117 117 36 10 10 10 10 10 10 10 10 10 11 13 16 104 229 229 229 229 229 229 229 229 229 229 169 152 152 152 152 152 152 160 224 207 63 31 169 186 169 22 14 255 255 255 255 255 255 255 255 255 14 16 18 169 186 186 186 186 169 38 168 229 229 40 14 14 14 15 116 188 229 229 229 229 229 229 229 55 10 10 10 10 10 10 10 10 10 10 10 10 10 10 10 10 10 13 108 117 117 64 10 10 10 10 10 10 10 10 10 10 10 10 11 14 34 168 229 229 229 229 229 229 229 229 203 152 152 152 152 152 152 152 188 229 229 63 31 169 186 75 33 255 255 255 255 255 255 255 255 255 14 14 99 186 186 186 186 169 31 149 229 229 127 14 14 14 14 14 229 229 229 229 229 229 229 229 229 207 15 10 10 10 10 10 10 10 10 10 10 10 10 10 10 10 10 64 117 117 64 10 10 10 10 10 10 10 10 10 10 10 10 10 10 10 13 14 95 229 229 229 229 229 229 229 229 160 152 152 152 152 152 152 155 224 229 229 114 31 169 169 22 14 255 255 255 255 255 255 255 255 16 25 186 186 186 186 186 37 87 229 229 229 23 14 14 14 14 22 229 229 229 229 229 229 229 229 229 229 38 10 10 10 10 10 10 10 10 10 10 10 10 10 10 10 21 117 117 64 10 10 10 10 10 10 10 10 10 10 10 10 10 10 10 10 10 11 15 36 207 229 229 229 229 229 229 195 152 152 152 152 152 152 152 182 229 229 229 114 37 186 75 30 255 255 255 255 255 255 255 14 14 75 186 186 186 186 75 40 229 229 229 100 14 14 14 14 14 23 229 229 229 229 229 229 229 229 229 229 188 15 10 10 10 10 10 10 10 10 10 10 10 10 10 10 80 117 64 10 10 10 10 10 10 10 10 10 10 10 10 10 10 10 10 10 10 10 11 13 17 152 229 229 229 229 229 220 152 152 152 152 152 152 152 155 224 229 229 229 63 56 169 24 255 255 255 255 255 255 255 14 14 169 186 186 186 138 19 188 229 229 229 19 14 14 14 14 14 20 229 229 229 229 229 229 229 229 229 229 229 38 11 10 10 10 10 10 10 10 10 10 10 10 10 42 117 64 10 10 10 10 10 10 10 10 10 10 10 10 10 10 10 10 10 10 10 10 10 10 12 14 82 229 229 229 229 229 163 152 152 152 152 152 152 152 188 229 229 229 229 59 112 53 14 255 255 255 255 255 255 16 47 186 186 186 186 31 89 229 229 229 100 14 14 14 14 14 14 20 229 229 229 229 229 229 229 229 229 229 229 188 14 10 10 10 10 10 10 10 10 10 10 10 13 108 42 10 10 10 10 10 10 10 10 10 10 10 10 10 10 10 10 10 10 10 10 10 10 10 10 11 14 55 207 229 229 229 195 152 152 152 152 152 152 152 155 229 229 229 229 207 39 105 33 255 255 255 255 255 14 14 112 186 186 186 99 25 229 229 229 229 25 14 14 14 14 14 14 20 229 229 229 229 229 229 229 229 229 229 229 229 42 11 10 10 10 10 10 10 10 10 10 10 64 31 10 10 10 10 10 10 10 10 10 10 10 10 10 10 10 10 10 10 10 10 10 10 10 10 10 10 11 14 30 207 229 229 212 152 152 152 152 152 152 152 152 198 229 229 229 229 168 45 30 255 255 255 255 255 14 19 186 186 186 186 24 118 229 229 229 168 15 14 14 14 14 14 14 20 229 229 229 229 229 229 229 229 229 229 229 229 207 16 10 10 10 10 10 10 10 10 10 10 17 10 10 10 10 10 10 10 10 10 10 10 10 10 10 10 10 10 10 10 10 10 10 10 10 10 10 10 10 11 14 26 207 229 229 155 152 152 152 152 152 152 152 174 229 229 229 229 229 99 44 14 255 255 255 255 18 56 186 186 186 99 25 229 229 229 229 61 14 14 14 14 14 14 14 17 229 229 229 229 229 229 229 229 229 229 229 229 229 75 13 10 10 10 10 10 10 10 10 10 10 10 10 10 10 10 10 10 10 10 10 10 10 10 10 10 10 10 10 10 10 10 10 10 10 10 10 10 10 10 10 13 17 168 229 169 152 152 152 152 152 152 152 152 224 229 229 229 229 229 44 44 255 255 255 14 14 99 186 186 186 25 89 229 229 229 229 18 14 14 14 14 14 14 14 17 229 229 229 229 229 229 229 229 229 229 229 229 229 229 22 11 10 10 10 10 10 10 10 10 10 10 10 10 10 10 10 10 10 10 10 10 10 10 10 10 10 10 10 10 10 10 10 10 10 10 10 10 10 10 10 10 13 17 168 188 152 152 152 152 152 152 152 152 198 229 229 229 229 229 147 28 255 255 255 14 14 153 186 186 124 14 207 229 229 229 168 15 14 14 14 14 14 14 14 17 229 229 229 229 229 229 229 229 229 229 229 229 229 229 152 15 10 10 10 10 10 10 10 10 10 10 10 10 10 10 10 10 10 10 10 10 10 10 10 10 10 10 10 10 10 10 10 10 10 10 10 10 10 10 10 10 10 13 17 146 152 152 152 152 152 152 152 152 179 229 229 229 229 229 229 36 255 255 255 14 25 186 186 186 56 52 229 229 229 229 61 15 14 14 14 14 14 14 14 14 152 229 229 229 229 229 229 229 229 229 229 229 229 229 229 60 13 10 10 10 10 10 10 10 10 10 10 10 10 10 10 10 10 10 10 10 10 10 10 10 10 10 10 10 10 10 10 10 10 10 10 10 10 10 10 10 10 10 13 22 137 152 152 152 152 152 152 152 160 229 229 229 229 229 229 104 14 255 255 21 56 186 186 186 19 118 229 229 229 229 23 14 14 14 14 14 14 14 14 15 152 229 229 229 229 229 229 229 229 229 229 229 229 229 229 207 19 11 10 10 10 10 10 10 10 10 10 10 10 10 10 10 10 10 10 10 10 10 10 10 10 10 10 10 10 10 10 10 10 10 10 10 10 10 10 10 10 10 10 13 18 137 152 152 152 152 152 152 152 220 229 229 229 229 229 152 51 255 255 14 87 186 186 124 14 207 229 229 229 188 14 14 14 14 14 14 14 14 14 14 70 229 229 229 229 229 229 229 229 229 229 229 229 229 229 229 152 15 11 10 10 10 10 10 10 10 10 10 10 10 10 10 10 10 10 10 10 10 10 10 10 10 10 10 10 10 10 10 10 10 10 10 10 10 10 10 10 10 10 10 10 30 152 152 152 152 152 152 152 203 229 229 229 229 229 229 52 255 14 14 124 186 186 66 42 229 229 229 229 118 15 14 14 14 14 14 14 14 14 14 56 229 229 229 229 229 229 229 229 229 229 229 229 229 229 229 229 75 14 10 10 10 10 10 10 10 10 10 10 10 10 10 10 10 10 10 10 10 10 10 10 10 10 10 10 10 10 10 10 10 10 10 10 10 10 10 10 10 10 10 7 10 47 152 152 152 152 152 152 188 229 229 229 229 229 229 52 255 14 14 169 186 186 31 89 229 229 229 229 61 14 14 14 14 14 14 14 14 14 15 25 229 229 229 229 229 229 229 229 229 229 229 229 229 229 229 229 229 26 12 10 10 10 10 10 10 10 10 10 10 10 10 10 10 10 10 10 10 10 10 10 10 10 10 10 10 10 10 10 10 10 10 10 10 10 10 10 10 10 10 7 7 10 79 152 152 152 152 152 169 229 229 229 229 229 229 64 255 14 14 186 186 186 14 152 229 229 229 229 30 14 14 14 14 14 14 14 14 14 14 16 229 229 229 229 229 229 229 229 229 229 229 229 229 229 229 229 229 188 16 11 10 10 10 10 10 10 10 10 10 10 10 10 10 10 10 10 10 10 10 10 10 10 10 10 10 10 10 10 10 10 10 10 10 10 10 10 10 10 10 7 7 8 11 112 152 152 152 152 169 229 229 229 229 229 229 74 255 14 31 186 186 124 14 207 229 229 229 229 14 15 14 14 14 14 14 14 14 14 14 16 188 229 229 229 229 229 229 229 229 229 229 229 229 229 229 229 229 229 134 14 11 10 10 10 10 10 10 10 10 10 10 10 10 10 10 10 10 10 10 10 10 10 10 10 10 10 10 10 10 10 10 10 10 10 10 10 10 10 10 7 7 7 9 18 152 152 152 152 152 229 229 229 229 229 229 89 255 14 38 186 186 87 26 229 229 229 229 168 14 14 14 14 14 14 14 14 14 14 14 14 134 229 229 229 229 229 229 229 229 229 229 229 229 229 229 229 229 229 229 71 14 10 10 10 10 10 10 10 10 10 10 10 10 10 10 10 10 10 10 10 10 10 10 10 10 10 10 10 10 10 10 10 10 10 10 10 10 10 10 7 7 7 7 10 44 152 152 152 152 229 229 229 229 229 229 118 14 14 38 186 186 66 52 229 229 229 229 152 15 14 14 14 14 14 14 14 14 14 14 14 61 229 229 229 229 229 229 229 229 229 229 229 229 229 229 229 229 229 229 229 36 14 10 10 10 10 10 10 10 10 10 10 10 10 10 10 10 10 10 10 10 10 10 10 10 10 10 10 10 10 10 10 10 10 10 10 10 10 10 7 7 7 7 7 10 100 152 152 152 229 229 229 229 229 229 152 14 14 66 186 186 38 89 229 229 229 229 89 14 14 14 14 14 14 14 14 14 14 14 14 23 229 229 229 229 229 229 229 229 229 229 229 229 229 229 229 229 229 229 229 207 25 13 10 10 10 10 10 10 10 10 10 10 10 10 10 10 10 10 10 10 10 10 10 10 10 10 10 10 10 10 10 10 10 10 10 10 10 9 7 7 7 7 7 9 14 152 152 152 207 229 229 229 229 229 152 14 14 75 186 186 31 134 229 229 229 229 66 14 14 14 14 14 14 14 14 14 14 14 14 14 207 229 229 229 229 229 229 229 229 229 229 229 229 229 229 229 229 229 229 229 168 16 12 10 10 10 10 10 10 10 10 10 10 10 10 10 10 10 10 10 10 10 10 10 10 10 10 10 10 10 10 10 10 10 10 10 10 9 7 7 7 7 7 7 10 51 152 152 207 229 229 229 229 229 152 14 14 75 186 186 14 152 229 229 229 229 35 15 14 14 14 14 14 14 14 14 14 14 14 15 118 229 229 229 229 229 229 229 229 229 229 229 229 229 229 229 229 229 229 229 229 168 14 11 10 10 10 10 10 10 10 10 10 10 10 10 10 10 10 10 10 10 10 10 10 10 10 10 10 10 10 10 10 10 10 10 10 8 7 7 7 7 7 7 7 11 124 152 207 229 229 229 229 229 152 14 14 75 186 186 14 188 229 229 229 229 35 15 14 14 14 14 14 14 14 14 14 14 14 15 52 229 229 229 229 229 229 229 229 229 229 229 229 229 229 229 229 229 229 229 229 229 118 14 11 10 10 10 10 10 10 10 10 10 10 10 10 10 10 10 10 10 10 10 10 10 10 10 10 10 10 10 10 10 10 10 10 8 7 7 7 7 7 7 7 9 32 152 207 229 229 229 229 229 152 14 14 56 186 153 14 229 229 229 229 229 19 14 14 14 14 14 14 14 14 14 14 14 14 15 16 229 229 229 229 229 229 229 229 229 229 229 229 229 229 229 229 229 229 229 229 229 229 95 14 11 10 10 10 10 10 10 10 10 10 10 10 10 10 10 10 10 10 10 10 10 10 10 10 10 10 10 10 10 10 10 10 7 7 7 7 7 7 7 7 7 11 112 229 229 229 229 229 229 152 14 14 38 186 124 14 229 229 229 229 229 14 14 14 14 14 14 14 14 14 14 14 14 14 14 15 134 229 229 229 229 229 229 229 229 229 229 229 229 229 229 229 229 229 229 229 229 229 229 60 15 11 10 10 10 10 10 10 10 10 10 10 10 10 10 10 10 10 10 10 10 10 10 10 10 10 10 10 10 10 10 9 7 7 7 7 7 7 7 7 7 8 20 229 229 229 229 229 229 134 14 14 38 186 124 38 229 229 229 229 229 14 14 14 14 14 14 14 14 14 14 14 14 14 14 14 56 229 229 229 229 229 229 229 229 229 229 229 229 229 229 229 229 229 229 229 229 229 229 229 55 14 11 10 10 10 10 10 10 10 10 10 10 10 10 10 10 10 10 10 10 10 10 10 10 10 10 10 10 10 10 9 7 7 7 7 7 7 7 7 7 7 10 168 229 229 229 229 229 89 255 14 27 186 124 40 229 229 229 229 229 14 14 14 14 14 14 14 14 14 14 14 14 14 14 14 16 229 229 229 229 229 229 229 229 229 229 229 229 229 229 229 229 229 229 229 229 229 229 229 229 51 14 11 10 10 10 10 10 10 10 10 10 10 10 10 10 10 10 10 10 10 10 10 10 10 10 10 10 10 10 8 7 7 7 7 7 7 7 7 7 7 9 38 229 229 229 229 229 74 255 14 14 186 124 42 229 229 229 229 229 14 14 14 14 14 14 14 14 14 14 14 14 14 14 14 15 118 229 229 229 229 229 229 229 229 229 229 229 229 229 229 229 229 229 229 229 229 229 229 229 229 30 14 11 10 10 10 10 10 10 10 10 10 10 10 10 10 10 10 10 10 10 10 10 10 10 10 10 10 10 7 7 7 7 7 7 7 7 7 7 7 7 14 188 229 229 229 229 64 255 255 14 169 124 42 229 220 229 229 229 14 14 14 14 14 14 14 14 14 14 14 14 14 14 14 14 35 229 229 229 229 229 229 229 229 229 229 229 229 229 229 229 229 229 229 229 229 229 229 229 229 207 30 14 11 10 10 10 10 10 10 10 10 10 10 10 10 10 10 10 10 10 10 10 10 10 10 10 10 9 7 7 7 7 7 7 7 7 7 7 7 8 11 63 229 229 229 229 52 255 255 25 124 124 62 229 195 229 229 229 14 14 14 14 14 14 14 14 14 14 14 14 14 14 14 15 14 188 229 229 229 229 229 229 229 229 229 229 229 229 229 229 229 229 229 229 229 229 229 229 229 229 207 30 14 11 10 10 10 10 10 10 10 10 10 10 10 10 10 10 10 10 10 10 10 10 10 10 10 8 7 7 7 7 7 7 7 7 7 7 7 9 10 17 229 229 229 229 52 255 255 29 87 124 85 229 179 224 229 229 14 14 14 14 14 14 14 14 14 14 14 14 14 14 14 14 14 71 229 229 229 229 229 229 229 229 229 229 229 229 229 229 229 229 229 229 229 229 229 229 229 229 229 207 30 14 11 10 10 10 10 10 10 10 10 10 10 10 10 10 10 10 10 10 10 10 10 10 9 7 7 7 7 7 7 7 7 7 7 7 7 9 10 12 112 229 229 152 51 255 255 14 56 124 85 229 198 188 229 229 14 14 14 14 14 14 14 14 14 14 14 14 14 14 14 14 14 16 207 229 229 229 229 229 229 229 229 229 229 229 229 229 229 229 229 229 229 229 229 229 229 229 229 229 207 44 14 11 10 10 10 10 10 10 10 10 10 10 10 10 10 10 10 10 10 10 10 10 8 7 7 7 7 7 7 7 7 7 7 7 7 10 10 10 30 229 229 104 14 255 255 14 23 124 85 229 220 155 224 229 14 14 14 14 14 14 14 14 14 14 14 14 14 14 14 14 14 15 83 229 229 229 229 229 229 229 229 229 229 229 229 229 229 229 229 229 229 229 229 229 229 229 229 229 229 229 51 15 11 10 10 10 10 10 10 10 10 10 10 10 10 10 10 10 10 10 10 9 7 7 7 7 7 7 7 7 7 7 7 7 8 10 10 10 15 207 229 56 255 255 255 255 21 105 85 229 229 160 188 229 14 14 14 14 14 14 14 14 14 14 14 14 14 14 14 14 14 14 17 207 229 229 229 229 229 229 229 229 229 229 229 229 229 229 229 229 229 229 229 229 229 229 229 229 229 229 229 60 15 11 10 10 10 10 10 10 10 10 10 10 10 10 10 10 10 10 10 8 7 7 7 7 7 7 7 7 7 7 7 7 9 10 10 10 11 89 229 44 255 255 255 255 40 83 85 229 229 182 155 224 30 14 14 14 14 14 14 14 14 14 14 14 14 14 14 14 14 14 15 83 229 229 229 229 229 229 229 229 229 229 229 229 229 229 229 229 229 229 229 229 229 229 229 229 229 229 229 229 71 14 11 10 10 10 10 10 10 10 10 10 10 10 10 10 10 10 9 7 7 7 7 7 7 7 7 7 7 7 7 7 9 10 10 10 10 33 168 50 255 255 255 255 14 45 85 229 229 212 152 179 35 15 14 14 14 14 14 14 14 14 14 14 14 14 14 14 14 14 15 16 207 229 229 229 229 229 229 229 229 229 229 229 229 229 229 229 229 229 229 229 229 229 229 229 229 229 229 229 229 108 14 11 10 10 10 10 10 10 10 10 10 10 10 10 10 10 8 7 7 7 7 7 7 7 7 7 7 7 7 8 10 10 10 10 10 17 73 14 255 255 255 255 255 22 84 229 229 229 160 152 38 15 14 14 14 14 14 14 14 14 14 14 14 14 14 14 14 14 14 15 83 229 229 229 229 229 229 229 229 229 229 229 229 229 229 229 229 229 229 229 229 229 229 229 229 229 229 229 229 229 118 16 12 10 10 10 10 10 10 10 10 10 10 10 10 9 7 7 7 7 7 7 7 7 7 7 7 7 7 9 10 10 10 10 10 11 26 255 255 255 255 255 255 40 47 229 229 229 195 152 63 14 14 14 14 14 14 14 14 14 14 14 14 14 14 14 14 14 14 14 14 188 229 229 229 229 229 229 229 229 229 229 229 229 229 229 229 229 229 229 229 229 229 229 229 229 229 229 229 229 229 168 17 13 10 10 10 10 10 10 10 10 10 10 9 7 7 7 7 7 7 7 7 7 7 7 7 7 7 9 10 10 10 10 10 11 22 255 255 255 255 255 255 14 39 229 229 229 224 155 79 11 14 14 14 14 14 14 14 14 14 14 14 14 14 14 14 14 14 14 14 37 229 229 229 229 229 229 229 229 229 229 229 229 229 229 229 229 229 229 229 229 229 229 229 229 229 229 229 229 229 229 188 25 14 10 10 10 10 10 10 10 10 10 8 7 7 7 7 7 7 7 7 7 7 7 7 7 8 10 10 10 10 10 10 13 14 255 255 255 255 255 255 255 22 188 229 229 229 179 100 11 13 14 14 14 14 14 14 14 14 14 14 14 14 14 14 14 14 14 15 14 134 229 229 229 229 229 229 229 229 229 229 229 229 229 229 229 229 229 229 229 229 229 229 229 229 229 229 229 229 229 229 207 44 14 11 10 10 10 10 10 10 9 7 7 7 7 7 7 7 7 7 7 7 7 7 7 9 10 10 10 10 10 10 16 255 255 255 255 255 255 255 255 29 89 229 229 229 220 137 10 10 14 14 14 14 14 14 14 14 14 14 14 14 14 14 14 14 14 14 14 17 207 229 229 229 229 229 229 229 229 229 229 229 229 229 229 229 229 229 229 229 229 229 229 229 229 229 229 229 229 229 229 229 82 14 11 10 10 10 10 9 7 7 7 7 7 7 7 7 7 7 7 7 7 7 8 10 10 10 10 10 10 12 13 255 255 255 255 255 255 255 255 14 22 207 229 229 229 182 13 10 11 14 14 14 14 14 14 14 14 14 14 14 14 14 14 14 14 14 14 15 47 229 229 229 229 229 229 229 229 229 229 229 229 229 229 229 229 229 229 229 229 229 229 229 229 229 229 229 229 229 229 229 229 134 16 12 10 10 9 7 7 7 7 7 7 7 7 7 7 7 7 7 7 7 9 10 10 10 10 10 10 14 255 255 255 255 255 255 255 255 255 255 36 89 229 229 229 224 29 10 10 11 14 14 14 14 14 14 14 14 14 14 14 14 14 14 14 14 14 14 14 118 229 229 229 229 229 229 229 229 229 229 229 229 229 229 229 229 229 229 229 229 229 229 229 229 229 229 229 229 229 229 229 229 168 25 14 9 7 7 7 7 7 7 7 7 7 7 7 7 7 7 7 8 10 10 10 10 10 10 12 13 255 255 255 255 255 255 255 255 255 255 14 23 207 229 229 229 81 10 10 10 11 14 14 14 14 14 14 14 14 14 14 14 14 14 14 14 14 14 15 16 168 229 229 229 229 229 229 229 229 229 229 229 229 229 229 229 229 229 229 229 229 229 229 229 229 229 229 229 229 229 229 229 229 207 48 11 8 7 7 7 7 7 7 7 7 7 7 7 7 7 7 9 10 10 10 10 10 10 14 14 255 255 255 255 255 255 255 255 255 255 255 36 89 229 229 229 168 11 10 10 10 11 14 14 14 14 14 14 14 14 14 14 14 14 14 14 14 14 14 14 29 207 229 229 229 229 229 229 229 229 229 229 229 229 229 229 229 229 229 229 229 229 229 229 229 229 229 229 229 229 229 229 229 212 155 82 11 9 7 7 7 7 7 7 7 7 7 7 7 7 9 10 10 10 10 10 10 12 13 255 255 255 255 255 255 255 255 255 255 255 255 14 27 188 229 229 229 15 10 10 10 10 11 13 14 14 14 14 14 14 14 14 14 14 14 14 14 14 14 14 15 56 229 229 229 229 229 229 229 229 229 229 229 229 229 229 229 229 229 229 229 229 229 229 229 229 229 229 229 229 229 229 198 152 152 152 124 20 10 7 7 7 7 7 7 7 7 7 7 8 10 10 10 10 10 10 10 14 14 255 255 255 255 255 255 255 255 255 255 255 255 255 23 51 229 229 229 38 13 10 10 10 10 10 12 14 14 14 14 14 14 14 14 14 14 14 14 14 14 14 15 15 83 229 229 229 229 229 229 229 229 229 229 229 229 229 229 229 229 229 229 229 229 229 229 229 229 229 229 229 229 182 152 152 152 152 152 152 58 11 8 7 7 7 7 7 7 7 7 9 10 10 10 10 10 10 13 14 255 255 255 255 255 255 255 255 255 255 255 255 255 255 255 27 152 229 229 108 14 11 10 10 10 10 10 11 14 14 14 14 14 14 14 14 14 14 14 14 14 14 14 14 14 118 229 229 229 229 229 229 229 229 229 229 229 229 229 229 229 229 229 229 229 229 229 229 229 229 229 212 163 152 152 152 152 152 152 152 152 124 19 9 7 7 7 7 7 7 9 10 10 10 10 10 10 11 14 255 255 255 255 255 255 255 255 255 255 255 255 255 255 255 255 14 23 207 229 207 16 14 11 10 10 10 10 10 10 12 14 14 14 14 14 14 14 14 14 14 14 14 14 14 14 14 118 229 229 229 229 229 229 229 229 229 229 229 229 229 229 229 229 229 229 229 229 229 229 224 188 152 152 152 152 152 152 152 152 152 152 152 152 58 11 8 7 7 7 8 10 10 10 10 10 10 11 14 14 255 255 255 255 255 255 255 255 255 255 255 255 255 255 255 255 255 33 51 229 229 34 15 14 11 10 10 10 10 10 10 11 13 14 14 14 14 14 14 14 14 14 14 14 14 14 14 14 168 229 229 229 229 229 229 229 229 229 229 229 229 229 229 229 229 229 229 229 229 198 160 152 152 152 152 152 152 152 152 152 152 152 152 152 152 137 27 9 7 8 10 10 10 10 10 10 10 14 14 255 255 255 255 255 255 255 255 255 255 255 255 255 255 255 255 255 255 255 27 104 229 108 14 14 14 11 10 10 10 10 10 10 10 11 13 14 14 14 14 14 14 14 14 14 14 14 14 14 16 152 229 229 229 229 229 229 229 229 229 229 229 229 229 229 229 229 229 198 160 152 152 152 152 152 152 152 152 152 152 152 152 152 152 152 152 152 152 91 22 12 10 10 10 10 10 10 12 14 255 255 255 255 255 255 255 255 255 255 255 255 255 255 255 255 255 255 255 255 14 25 168 229 18 14 14 14 11 10 10 10 10 10 10 10 10 11 12 14 14 14 14 14 14 14 14 14 14 14 14 14 118 229 229 229 229 229 229 229 229 229 229 229 229 229 220 188 160 152 152 152 152 152 152 152 152 152 152 152 152 152 152 152 152 152 152 152 152 163 224 125 23 11 10 10 10 11 14 14 255 255 255 255 255 255 255 255 255 255 255 255 255 255 255 255 255 255 255 255 255 14 23 188 51 14 14 14 14 11 10 10 10 10 10 10 10 10 10 10 11 13 14 14 14 14 14 14 14 14 14 14 14 108 229 229 229 229 229 229 229 229 229 220 198 174 152 152 152 152 152 152 152 152 152 152 152 152 152 152 152 152 152 152 152 152 152 152 174 224 229 229 229 125 33 13 11 14 14 255 255 255 255 255 255 255 255 255 255 255 255 255 255 255 255 255 255 255 255 255 255 255 31 31 171 16 14 14 14 14 11 10 10 10 10 10 10 10 10 10 10 10 10 11 12 13 13 14 14 14 14 14 14 14 71 229 229 229 229 207 198 179 160 152 152 152 152 152 152 152 152 152 152 152 152 152 152 152 152 152 152 152 152 152 152 152 152 179 229 229 229 229 229 229 229 140 16 18 255 255 255 255 255 255 255 255 255 255 255 255 255 255 255 255 255 255 255 255 255 255 255 255 255 23 33 31 14 14 14 14 14 11 10 10 10 10 10 10 10 10 10 10 10 10 10 10 10 10 10 11 11 11 11 11 11 33 153 152 152 152 152 152 152 152 152 152 152 152 152 152 152 152 152 152 152 152 152 152 152 152 152 152 152 152 152 152 188 229 229 229 229 229 229 229 168 19 18 255 255 255 255 255 255 255 255 255 255 255 255 255 255 255 255 255 255 255 255 255 255 255 255 255 255 255 42 29 15 14 14 14 14 14 12 10 10 10 10 10 10 10 10 10 10 10 10 10 10 10 10 10 10 10 10 10 10 10 17 112 152 152 152 152 152 152 152 152 152 152 152 152 152 152 152 152 152 152 152 152 152 152 152 152 152 152 155 203 229 229 229 229 229 229 229 168 19 20 255 255 255 255 255 255 255 255 255 255 255 255 255 255 255 255 255 255 255 255 255 255 255 255 255 255 255 255 255 42 17 14 14 14 14 14 14 12 11 10 10 10 10 10 10 10 10 10 10 10 10 10 10 10 10 10 10 10 10 10 10 11 64 152 152 152 152 152 152 152 152 152 152 152 152 152 152 152 152 152 152 152 152 152 152 152 152 169 220 229 229 229 229 229 229 229 118 19 18 14 255 255 255 255 255 255 255 255 255 255 255 255 255 255 255 255 255 255 255 255 255 255 255 255 255 255 255 255 255 255 20 15 15 14 14 14 14 14 14 11 10 10 10 10 10 10 10 10 10 10 10 10 10 10 10 10 10 10 10 10 10 10 11 29 137 152 152 152 152 152 152 152 152 152 152 152 152 152 152 152 152 152 152 152 152 155 195 229 229 229 229 229 229 229 229 104 14 16 14 255 255 255 255 255 255 255 255 255 255 255 255 255 255 255 255 255 255 255 255 255 255 255 255 255 255 255 255 255 255 255 255 21 15 14 14 14 14 14 14 14 13 11 10 10 10 10 10 10 10 10 10 10 10 10 10 10 10 10 10 10 10 10 10 10 11 72 152 152 152 152 152 152 152 152 152 152 152 152 152 152 152 152 152 152 174 220 229 229 229 229 229 229 229 207 64 14 18 255 255 255 255 255 255 255 255 255 255 255 255 255 255 255 255 255 255 255 255 255 255 255 255 255 255 255 255 255 255 255 255 255 255 255 14 14 15 14 14 14 14 14 14 14 12 11 10 10 10 10 10 10 10 10 10 10 10 10 10 10 10 10 10 10 10 10 10 10 20 124 152 152 152 152 152 152 152 152 152 152 152 152 152 152 169 207 229 229 229 229 229 229 229 229 168 35 14 14 255 255 255 255 255 255 255 255 255 255 255 255 255 255 255 255 255 255 255 255 255 255 255 255 255 255 255 255 255 255 255 255 255 255 255 255 255 14 14 14 14 14 14 14 14 14 14 14 12 11 10 10 10 10 10 10 10 10 10 10 10 10 10 10 10 10 10 10 10 10 10 11 38 137 152 152 152 152 152 152 152 152 152 152 169 207 229 229 229 229 229 229 229 229 229 104 19 16 14 255 255 255 255 255 255 255 255 255 255 255 255 255 255 255 255 255 255 255 255 255 255 255 255 255 255 255 255 255 255 255 255 255 255 255 255 255 255 255 255 14 14 14 14 14 14 14 14 14 14 14 13 11 10 10 10 10 10 10 10 10 10 10 10 10 10 10 10 10 10 10 10 10 10 12 51 137 152 152 152 152 152 155 182 220 229 229 229 229 229 229 229 229 229 188 44 14 17 14 255 255 255 255 255 255 255 255 255 255 255 255 255 255 255 255 255 255 255 255 255 255 255 255 255 255 255 255 255 255 255 255 255 255 255 255 255 255 255 255 255 255 14 14 14 15 14 14 14 14 14 14 14 14 14 12 11 10 10 10 10 10 10 10 10 10 10 10 10 10 10 10 10 10 10 10 10 12 47 137 160 182 203 229 229 229 229 229 229 229 229 229 229 207 89 14 14 14 255 255 255 255 255 255 255 255 255 255 255 255 255 255 255 255 255 255 255 255 255 255 255 255 255 255 255 255 255 255 255 255 255 255 255 255 255 255 255 255 255 255 255 255 255 255 14 14 14 14 14 14 14 14 14 14 14 14 14 14 13 12 11 11 10 10 10 10 10 10 10 10 10 10 10 10 10 10 11 12 13 16 59 188 229 229 229 229 229 229 229 229 229 229 104 20 14 16 14 255 255 255 255 255 255 255 255 255 255 255 255 255 255 255 255 255 255 255 255 255 255 255 255 255 255 255 255 255 255 255 255 255 255 255 255 255 255 255 255 255 255 255 255 255 255 255 255 14 14 14 14 14 14 14 14 14 14 14 14 14 14 14 14 14 14 14 13 13 12 12 12 12 12 13 13 13 14 14 14 14 14 14 14 16 32 127 229 229 229 229 229 207 89 27 14 16 14 255 255 255 255 255 255 255 255 255 255 255 255 255 255 255 255 255 255 255 255 255 255 255 255 255 255 255 255 255 255 255 255 255 255 255 255 255 255 255 255 255 255 255 255 255 255 255 255 255 255 255 255 14 14 14 14 14 14 14 14 14 14 14 14 14 14 14 14 14 14 14 14 14 14 14 14 14 14 14 14 14 14 14 14 14 14 14 14 14 23 58 171 188 76 20 14 16 14 14 255 255 255 255 255 255 255 255 255 255 255 255 255 255 255 255 255 255 255 255 255 255 255 255 255 255 255 255 255 255 255 255 255 255 255 255 255 255 255 255 255 255 255 255 255 255 255 255 255 255 255 255 255 255 255 14 14 14 14 14 15 14 14 14 14 14 14 14 14 14 14 14 14 14 14 14 14 14 14 14 14 14 14 14 14 14 14 14 14 14 14 14 14 14 14 16 14 14 255 255 255 255 255 255 255 255 255 255 255 255 255 255 255 255 255 255 255 255 255 255 255 255 255 255 255 255 255 255 255 255 255 255 255 255 255 255 255 255 255 255 255 255 255 255 255 255 255 255 255 255 255 255 255 255 255 255 255 14 14 14 14 14 14 14 14 14 14 14 14 14 14 14 14 14 14 14 14 14 14 14 14 14 14 14 14 14 14 14 14 14 14 14 14 14 14 255 255 255 255 255 255 255 255 255 255 255 255 255 255 255 255 255 255 255 255 255 255 255 255 255 255 255 255 255 255 255 255 255 255 255 255 255 255 255 255 255 255 255 255 255 255 255 255 255 255 255 255 255 255 255 255 255 255 255 255 255 255 255 255 255 14 14 14 14 14 14 14 15 14 14 14 14 14 14 14 14 14 14 14 14 14 15 14 15 14 14 14 14 14 14 14 14 14 255 255 255 255 255 255 255 255 255 255 255 255 255 255 255 255 255 255 255 255 255 255 255 255 255 255 255 255 255 255 255 255 255 255 255 255 255 255 255 255 255 255 255 255 255 255 255 255 255 255 255 255 255 255 255 255 255 255 255 255 255 255 255 255 255 255 255 255 255 255 14 14 14 14 14 14 14 14 14 14 14 14 14 14 14 14 14 14 14 14 14 14 14 14 14 14 14 255 255 255 255 255 255 255 255 255 255 255 255 255 255 255 255 255 255 255 255 255 255 255 255 255 255 255 255 255 255 255 255 255 255 255 255 255 255 255 255 255 255 255 255 255 255 255 255 255 255 255 255 255 255 255 255 255 255 255 255 255 255 255 255 255 255 255 255 255 255 255 255 255 255 255 255 255 255 14 14 14 14 14 14 14 14 14 14 14 14 14 14 14 14 14 255 255 255 255 255 255 255 255 255 255 255 255 255 255 255 255 255 255 255 255 255 255 255 255 255 255 255 255 255 255 255 255 255 255 255 255 255 255 255 255 0 